# xmcd
#
# Track frame offsets: 
#        300
#        18671
#        38566
#        55164
#        71977
#        85453
#        101896
#        126296
#        147554
#        160457
#        180831
#        198957
#        213050
#        230535
#        246571
#        251578
#
# Disc length: 3524 seconds
#
# Revision: 1
# Processed by: cddbd v1.5.2PL0 Copyright (c) Steve Scherf et al.
# Submitted via: ExactAudioCopy v0.99pb5
#
DISCID=ee0dc010
DTITLE=Bonnie Raitt - Sigma Sound Studios Rainbow Room
DYEAR=1972
DGENRE=Blues Rock
TTITLE0=Mighty Tight Woman
TTITLE1=Rollin' and Tumblin'
TTITLE2=Anyday Woman
TTITLE3=Woman Be Wise
TTITLE4=Thank You
TTITLE5=Bluebird
TTITLE6=Finest Lovin' Man
TTITLE7=Big Road
TTITLE8=Stayed Too Long At The Fair
TTITLE9=Under The Falling Sky
TTITLE10=Walkin' Blues
TTITLE11=Can't Find My Way Home
TTITLE12=Richland Woman Blues
TTITLE13=Blender Blues
TTITLE14=Radio Jingle Promo
TTITLE15=Since I Fell For You 
EXTD=
EXTT0=
EXTT1=
EXTT2=
EXTT3=
EXTT4=
EXTT5=
EXTT6=
EXTT7=
EXTT8=
EXTT9=
EXTT10=
EXTT11=
EXTT12=
EXTT13=
EXTT14=
EXTT15=
PLAYORDER=
